<svg width="72" height="72" viewBox="0 0 72 72" fill="none" xmlns="http://www.w3.org/2000/svg">
<path fill-rule="evenodd" clip-rule="evenodd" d="M36.3651 -1.30517e-06C39.4575 3.81606 42.8683 7.35995 46.5565 10.5905C44.0988 18.6223 42.7756 27.1554 42.7756 35.9999C42.7756 44.8444 44.0988 53.3775 46.5565 61.4093C42.8682 64.6399 39.4574 68.1839 36.3649 72C33.2724 68.1837 29.8614 64.6396 26.1729 61.4088C28.6305 53.3772 29.9536 44.8442 29.9537 35.9999C29.9537 27.1557 28.6306 18.6228 26.1729 10.5912C29.8615 7.36044 33.2725 3.81632 36.3651 -1.30517e-06ZM19.1234 55.8565C15.2189 53.0991 11.0751 50.6622 6.72959 48.5839C7.9349 44.6033 8.5833 40.3779 8.5833 35.9999C8.5833 31.622 7.93492 27.3967 6.72962 23.4161C11.0751 21.3377 15.2189 18.9009 19.1234 16.1436C20.6164 22.518 21.4063 29.166 21.4063 35.9999C21.4063 42.8339 20.6164 49.4819 19.1234 55.8565ZM51.3241 35.9999C51.3241 42.8338 52.114 49.4817 53.6069 55.8561C57.5112 53.0989 61.6548 50.6623 66 48.584C64.7946 44.6034 64.1462 40.3779 64.1462 35.9999C64.1462 31.6219 64.7946 27.3965 66 23.4158C61.6548 21.3375 57.5112 18.9009 53.6069 16.1437C52.114 22.5181 51.3241 29.166 51.3241 35.9999Z" fill="#FF3337"/>
</svg>
